<svg width="35" height="38" viewBox="0 0 35 38" fill="none" xmlns="http://www.w3.org/2000/svg">
<path d="M19.058 0.779055C17.9593 -0.259685 16.2407 -0.259685 15.142 0.779055L1.33802 13.8302C0.48393 14.6377 0 15.7612 0 16.9366V32.8089C0 35.1699 1.91397 37.0839 4.275 37.0839H8.55C10.911 37.0839 12.825 35.1699 12.825 32.8089V25.6839C12.825 24.897 13.463 24.259 14.25 24.259H19.95C20.737 24.259 21.375 24.897 21.375 25.6839V32.8089C21.375 35.1699 23.2891 37.0839 25.65 37.0839H29.925C32.2859 37.0839 34.2 35.1699 34.2 32.8089V16.9366C34.2 15.7612 33.7161 14.6377 32.8619 13.8302L19.058 0.779055Z" fill="white"/>
</svg>
