<svg width="44" height="33" viewBox="0 0 44 33" fill="none" xmlns="http://www.w3.org/2000/svg">
<path d="M42.4446 15.1768C40.5173 6.3771 37.6168 1.68039 33.3141 0.397464C32.4097 0.129544 31.4715 -0.00430593 30.529 0.000105586C29.2831 0.000105586 28.1982 0.306612 27.0505 0.631473C25.6674 1.02332 24.0963 1.4684 21.8055 1.4684C19.5147 1.4684 17.9426 1.02424 16.5569 0.632391C15.4083 0.306612 14.3242 0.000105586 13.082 0.000105586C12.1074 -0.00330737 11.137 0.130116 10.1988 0.396546C5.91883 1.67396 3.02009 6.36884 1.06459 15.1713C-1.03813 24.6436 -0.00312638 30.6242 3.96695 32.0117C4.51115 32.2054 5.08374 32.3053 5.66076 32.3072C8.38047 32.3072 10.5613 30.0194 12.0516 28.1464C13.7354 26.0266 15.7064 24.9511 21.8055 24.9511C27.2531 24.9511 29.5076 25.6971 31.4549 28.1464C32.6789 29.6863 33.8357 30.7637 34.9897 31.4418C36.5245 32.343 38.0584 32.5431 39.5477 32.0264C41.894 31.2179 43.2388 29.0806 43.546 25.6724C43.7795 23.0588 43.4197 19.6257 42.4446 15.1768ZM17.4438 14.6831H14.536V17.6197C14.536 18.0091 14.3828 18.3825 14.1101 18.6579C13.8375 18.9333 13.4677 19.088 13.082 19.088C12.6964 19.088 12.3266 18.9333 12.054 18.6579C11.7813 18.3825 11.6281 18.0091 11.6281 17.6197V14.6831H8.72032C8.33472 14.6831 7.96492 14.5284 7.69226 14.253C7.4196 13.9777 7.26642 13.6042 7.26642 13.2148C7.26642 12.8254 7.4196 12.4519 7.69226 12.1765C7.96492 11.9012 8.33472 11.7465 8.72032 11.7465H11.6281V8.80989C11.6281 8.42047 11.7813 8.047 12.054 7.77164C12.3266 7.49628 12.6964 7.34159 13.082 7.34159C13.4677 7.34159 13.8375 7.49628 14.1101 7.77164C14.3828 8.047 14.536 8.42047 14.536 8.80989V11.7465H17.4438C17.8294 11.7465 18.1992 11.9012 18.4718 12.1765C18.7445 12.4519 18.8977 12.8254 18.8977 13.2148C18.8977 13.6042 18.7445 13.9777 18.4718 14.253C18.1992 14.5284 17.8294 14.6831 17.4438 14.6831ZM25.0768 15.0501C24.7174 15.0501 24.366 14.9425 24.0671 14.7408C23.7682 14.5392 23.5353 14.2525 23.3977 13.9171C23.2602 13.5818 23.2242 13.2127 23.2943 12.8567C23.3645 12.5007 23.5375 12.1737 23.7917 11.917C24.0459 11.6603 24.3697 11.4855 24.7222 11.4147C25.0748 11.3439 25.4402 11.3802 25.7723 11.5191C26.1044 11.658 26.3882 11.8933 26.5879 12.1951C26.7876 12.4969 26.8942 12.8518 26.8942 13.2148C26.8942 13.7015 26.7027 14.1684 26.3619 14.5126C26.0211 14.8568 25.5588 15.0501 25.0768 15.0501ZM29.075 19.088C28.7154 19.088 28.3639 18.9802 28.0649 18.7783C27.7659 18.5764 27.533 18.2895 27.3956 17.9539C27.2582 17.6183 27.2224 17.249 27.2929 16.8928C27.3634 16.5367 27.537 16.2097 27.7916 15.9532C28.0462 15.6967 28.3704 15.5222 28.7233 15.4519C29.0761 15.3816 29.4417 15.4186 29.7737 15.5583C30.1057 15.6979 30.3892 15.9338 30.5884 16.2363C30.7875 16.5387 30.8933 16.894 30.8924 17.2572C30.8912 17.7432 30.6992 18.2088 30.3585 18.552C30.0178 18.8952 29.5563 19.088 29.075 19.088ZM29.075 11.0123C28.7156 11.0123 28.3642 10.9047 28.0654 10.703C27.7665 10.5013 27.5336 10.2147 27.396 9.87933C27.2584 9.54396 27.2225 9.17492 27.2926 8.8189C27.3627 8.46287 27.5358 8.13584 27.79 7.87916C28.0441 7.62248 28.368 7.44767 28.7205 7.37685C29.073 7.30604 29.4384 7.34238 29.7705 7.4813C30.1026 7.62021 30.3864 7.85546 30.5861 8.15728C30.7858 8.45911 30.8924 8.81396 30.8924 9.17696C30.8924 9.66373 30.701 10.1306 30.3601 10.4748C30.0193 10.819 29.557 11.0123 29.075 11.0123ZM33.0733 15.0501C32.7138 15.0501 32.3625 14.9425 32.0636 14.7408C31.7647 14.5392 31.5318 14.2525 31.3942 13.9171C31.2567 13.5818 31.2207 13.2127 31.2908 12.8567C31.361 12.5007 31.534 12.1737 31.7882 11.917C32.0424 11.6603 32.3662 11.4855 32.7187 11.4147C33.0713 11.3439 33.4367 11.3802 33.7688 11.5191C34.1009 11.658 34.3847 11.8933 34.5844 12.1951C34.7841 12.4969 34.8907 12.8518 34.8907 13.2148C34.8907 13.7015 34.6992 14.1684 34.3584 14.5126C34.0176 14.8568 33.5553 15.0501 33.0733 15.0501Z" fill="white"/>
</svg>
